HIERARCHY
ROOT Hips
{
	OFFSET 0.053599 88.859886 3.107447
	CHANNELS 6 Xposition Yposition Zposition Zrotation Yrotation Xrotation 
	JOINT Spine
	{
		OFFSET -0.000000 8.814246 -2.080107
		CHANNELS 3 Zrotation Yrotation Xrotation
		JOINT Spine1
		{
			OFFSET 0.000000 8.844141 0.000000
			CHANNELS 3 Zrotation Yrotation Xrotation
			JOINT Spine2
			{
				OFFSET -0.000000 11.682268 0.000000
				CHANNELS 3 Zrotation Yrotation Xrotation
				JOINT Spine3
				{
					OFFSET 0.000000 11.746700 0.000000
					CHANNELS 3 Zrotation Yrotation Xrotation
					JOINT Neck
					{
						OFFSET -0.000000 17.658264 -0.000000
						CHANNELS 3 Zrotation Yrotation Xrotation
						JOINT Neck1
						{
							OFFSET -0.000000 5.101515 -0.000000
							CHANNELS 3 Zrotation Yrotation Xrotation
							JOINT Head
							{
								OFFSET 0.000000 5.101515 0.000000
								CHANNELS 3 Zrotation Yrotation Xrotation
								JOINT HeadEnd
								{
									OFFSET 0.000000 11.655085 0.000000
									CHANNELS 3 Zrotation Yrotation Xrotation
									End Site
									{
										OFFSET 0.000000 0.000000 0.000000
									}
								}
							}
						}
					}
					JOINT RightShoulder
					{
						OFFSET -2.625389 11.175210 0.000000
						CHANNELS 3 Zrotation Yrotation Xrotation
						JOINT RightArm
						{
							OFFSET -0.000000 10.434715 -0.000000
							CHANNELS 3 Zrotation Yrotation Xrotation
							JOINT RightForeArm
							{
								OFFSET -0.000000 29.628420 0.000000
								CHANNELS 3 Zrotation Yrotation Xrotation
								JOINT RightHand
								{
									OFFSET -0.000000 22.857611 0.000000
									CHANNELS 3 Zrotation Yrotation Xrotation
									JOINT RightHandThumb1
									{
										OFFSET -2.867323 3.959563 2.944291
										CHANNELS 3 Zrotation Yrotation Xrotation
										JOINT RightHandThumb2
										{
											OFFSET 0.000000 3.350399 0.000000
											CHANNELS 3 Zrotation Yrotation Xrotation
											JOINT RightHandThumb3
											{
												OFFSET 0.000000 3.756509 -0.000000
												CHANNELS 3 Zrotation Yrotation Xrotation
												JOINT RightHandThumb4
												{
													OFFSET 0.000000 3.147345 0.000000
													CHANNELS 3 Zrotation Yrotation Xrotation
													End Site
													{
														OFFSET 0.000000 0.000000 0.000000
													}
												}
											}
										}
									}
									JOINT RightHandIndex1
									{
										OFFSET -0.086752 10.030893 2.345280
										CHANNELS 3 Zrotation Yrotation Xrotation
										JOINT RightHandIndex2
										{
											OFFSET -0.000000 4.061090 0.000000
											CHANNELS 3 Zrotation Yrotation Xrotation
											JOINT RightHandIndex3
											{
												OFFSET -0.000000 3.248873 0.000000
												CHANNELS 3 Zrotation Yrotation Xrotation
												JOINT RightHandIndex4
												{
													OFFSET 0.000000 2.639709 -0.000000
													CHANNELS 3 Zrotation Yrotation Xrotation
													End Site
													{
														OFFSET 0.000000 0.000000 0.000000
													}
												}
											}
										}
									}
									JOINT RightHandMiddle1
									{
										OFFSET 0.104102 9.502952 0.006768
										CHANNELS 3 Zrotation Yrotation Xrotation
										JOINT RightHandMiddle2
										{
											OFFSET 0.000000 4.568727 0.000000
											CHANNELS 3 Zrotation Yrotation Xrotation
											JOINT RightHandMiddle3
											{
												OFFSET 0.000000 3.654981 -0.000000
												CHANNELS 3 Zrotation Yrotation Xrotation
												JOINT RightHandMiddle4
												{
													OFFSET -0.000000 2.741236 -0.000000
													CHANNELS 3 Zrotation Yrotation Xrotation
													End Site
													{
														OFFSET 0.000000 0.000000 0.000000
													}
												}
											}
										}
									}
									JOINT RightHandRing1
									{
										OFFSET 0.086752 8.921708 -2.267442
										CHANNELS 3 Zrotation Yrotation Xrotation
										JOINT RightHandRing2
										{
											OFFSET -0.000000 4.061090 0.000000
											CHANNELS 3 Zrotation Yrotation Xrotation
											JOINT RightHandRing3
											{
												OFFSET 0.000000 3.654981 -0.000000
												CHANNELS 3 Zrotation Yrotation Xrotation
												JOINT RightHandRing4
												{
													OFFSET 0.000000 2.741236 -0.000000
													CHANNELS 3 Zrotation Yrotation Xrotation
													End Site
													{
														OFFSET 0.000000 0.000000 0.000000
													}
												}
											}
										}
									}
									JOINT RightHandPinky1
									{
										OFFSET -0.173504 7.976997 -4.467199
										CHANNELS 3 Zrotation Yrotation Xrotation
										JOINT RightHandPinky2
										{
											OFFSET 0.000000 3.350399 -0.000000
											CHANNELS 3 Zrotation Yrotation Xrotation
											JOINT RightHandPinky3
											{
												OFFSET -0.000000 2.842763 0.000000
												CHANNELS 3 Zrotation Yrotation Xrotation
												JOINT RightHandPinky4
												{
													OFFSET -0.000000 2.639709 0.000000
													CHANNELS 3 Zrotation Yrotation Xrotation
													End Site
													{
														OFFSET 0.000000 0.000000 0.000000
													}
												}
											}
										}
									}
									JOINT RightForeArmEnd
									{
										OFFSET 0.000000 0.000000 0.000000
										CHANNELS 3 Zrotation Yrotation Xrotation
										End Site
										{
											OFFSET 0.000000 0.000000 0.000000
										}
									}
								}
								JOINT RightArmEnd
								{
									OFFSET 0.000000 0.000000 0.000000
									CHANNELS 3 Zrotation Yrotation Xrotation
									End Site
									{
										OFFSET 0.000000 0.000000 0.000000
									}
								}
							}
						}
					}
					JOINT LeftShoulder
					{
						OFFSET 2.625389 11.175210 0.000000
						CHANNELS 3 Zrotation Yrotation Xrotation
						JOINT LeftArm
						{
							OFFSET 0.000000 10.813635 -0.000000
							CHANNELS 3 Zrotation Yrotation Xrotation
							JOINT LeftForeArm
							{
								OFFSET 0.000000 28.724781 0.000000
								CHANNELS 3 Zrotation Yrotation Xrotation
								JOINT LeftHand
								{
									OFFSET 0.644384 25.716167 -0.328871
									CHANNELS 3 Zrotation Yrotation Xrotation
									JOINT LeftHandThumb1
									{
										OFFSET 2.867323 3.959563 2.944291
										CHANNELS 3 Zrotation Yrotation Xrotation
										JOINT LeftHandThumb2
										{
											OFFSET 0.000000 3.350399 0.000000
											CHANNELS 3 Zrotation Yrotation Xrotation
											JOINT LeftHandThumb3
											{
												OFFSET -0.000000 3.756509 0.000000
												CHANNELS 3 Zrotation Yrotation Xrotation
												JOINT LeftHandThumb4
												{
													OFFSET -0.000000 3.100000 0.000000
													CHANNELS 3 Zrotation Yrotation Xrotation
													End Site
													{
														OFFSET 0.000000 0.000000 0.000000
													}
												}
											}
										}
									}
									JOINT LeftHandIndex1
									{
										OFFSET 0.086752 10.030893 2.345280
										CHANNELS 3 Zrotation Yrotation Xrotation
										JOINT LeftHandIndex2
										{
											OFFSET -0.000000 4.061090 -0.000000
											CHANNELS 3 Zrotation Yrotation Xrotation
											JOINT LeftHandIndex3
											{
												OFFSET 0.000000 3.248873 -0.000000
												CHANNELS 3 Zrotation Yrotation Xrotation
												JOINT LeftHandIndex4
												{
													OFFSET 0.000000 2.639709 -0.000000
													CHANNELS 3 Zrotation Yrotation Xrotation
													End Site
													{
														OFFSET 0.000000 0.000000 0.000000
													}
												}
											}
										}
									}
									JOINT LeftHandMiddle1
									{
										OFFSET -0.104102 9.502952 0.006768
										CHANNELS 3 Zrotation Yrotation Xrotation
										JOINT LeftHandMiddle2
										{
											OFFSET -0.000000 4.568727 -0.000000
											CHANNELS 3 Zrotation Yrotation Xrotation
											JOINT LeftHandMiddle3
											{
												OFFSET 0.000000 3.654981 0.000000
												CHANNELS 3 Zrotation Yrotation Xrotation
												JOINT LeftHandMiddle4
												{
													OFFSET 0.000000 2.741236 -0.000000
													CHANNELS 3 Zrotation Yrotation Xrotation
													End Site
													{
														OFFSET 0.000000 0.000000 0.000000
													}
												}
											}
										}
									}
									JOINT LeftHandRing1
									{
										OFFSET -0.086752 8.921708 -2.267442
										CHANNELS 3 Zrotation Yrotation Xrotation
										JOINT LeftHandRing2
										{
											OFFSET 0.000000 4.061090 0.000000
											CHANNELS 3 Zrotation Yrotation Xrotation
											JOINT LeftHandRing3
											{
												OFFSET 0.000000 3.654981 0.000000
												CHANNELS 3 Zrotation Yrotation Xrotation
												JOINT LeftHandRing4
												{
													OFFSET 0.000000 2.741236 0.000000
													CHANNELS 3 Zrotation Yrotation Xrotation
													End Site
													{
														OFFSET 0.000000 0.000000 0.000000
													}
												}
											}
										}
									}
									JOINT LeftHandPinky1
									{
										OFFSET 0.173504 7.976997 -4.467199
										CHANNELS 3 Zrotation Yrotation Xrotation
										JOINT LeftHandPinky2
										{
											OFFSET -0.000000 3.350399 -0.000000
											CHANNELS 3 Zrotation Yrotation Xrotation
											JOINT LeftHandPinky3
											{
												OFFSET 0.000000 2.842763 0.000000
												CHANNELS 3 Zrotation Yrotation Xrotation
												JOINT LeftHandPinky4
												{
													OFFSET -0.000000 2.639709 -0.000000
													CHANNELS 3 Zrotation Yrotation Xrotation
													End Site
													{
														OFFSET 0.000000 0.000000 0.000000
													}
												}
											}
										}
									}
									JOINT LeftForeArmEnd
									{
										OFFSET 0.000000 0.000000 0.000000
										CHANNELS 3 Zrotation Yrotation Xrotation
										End Site
										{
											OFFSET 0.000000 0.000000 0.000000
										}
									}
								}
								JOINT LeftArmEnd
								{
									OFFSET 0.000000 0.000000 0.000000
									CHANNELS 3 Zrotation Yrotation Xrotation
									End Site
									{
										OFFSET 0.000000 0.000000 0.000000
									}
								}
							}
						}
					}
				}
			}
		}
	}
	JOINT RightUpLeg
	{
		OFFSET -11.289943 0.000000 0.000000
		CHANNELS 3 Zrotation Yrotation Xrotation
		JOINT RightLeg
		{
			OFFSET 0.000000 -38.200325 0.000000
			CHANNELS 3 Zrotation Yrotation Xrotation
			JOINT RightFoot
			{
				OFFSET -0.000000 -39.900856 -0.000000
				CHANNELS 3 Zrotation Yrotation Xrotation
				JOINT RightToeBase
				{
					OFFSET 0.000000 0.000000 15.261641
					CHANNELS 3 Zrotation Yrotation Xrotation
					JOINT RightToeBaseEnd
					{
						OFFSET 0.000000 0.000000 7.370709
						CHANNELS 3 Zrotation Yrotation Xrotation
						End Site
						{
							OFFSET 0.000000 0.000000 0.000000
						}
					}
				}
				JOINT RightLegEnd
				{
					OFFSET 0.000000 0.000000 0.000000
					CHANNELS 3 Zrotation Yrotation Xrotation
					End Site
					{
						OFFSET 0.000000 0.000000 0.000000
					}
				}
			}
			JOINT RightUpLegEnd
			{
				OFFSET 0.000000 0.000000 0.000000
				CHANNELS 3 Zrotation Yrotation Xrotation
				End Site
				{
					OFFSET 0.000000 0.000000 0.000000
				}
			}
		}
	}
	JOINT LeftUpLeg
	{
		OFFSET 11.315661 -0.000000 0.000000
		CHANNELS 3 Zrotation Yrotation Xrotation
		JOINT LeftLeg
		{
			OFFSET -0.000000 -38.200325 -0.000000
			CHANNELS 3 Zrotation Yrotation Xrotation
			JOINT LeftFoot
			{
				OFFSET 0.000000 -39.900856 -0.000000
				CHANNELS 3 Zrotation Yrotation Xrotation
				JOINT LeftToeBase
				{
					OFFSET -0.000000 -0.000000 15.261641
					CHANNELS 3 Zrotation Yrotation Xrotation
					JOINT LeftToeBaseEnd
					{
						OFFSET 0.000000 -0.000000 7.539996
						CHANNELS 3 Zrotation Yrotation Xrotation
						End Site
						{
							OFFSET 0.000000 0.000000 0.000000
						}
					}
				}
				JOINT LeftLegEnd
				{
					OFFSET 0.000000 0.000000 0.000000
					CHANNELS 3 Zrotation Yrotation Xrotation
					End Site
					{
						OFFSET 0.000000 0.000000 0.000000
					}
				}
			}
			JOINT LeftUpLegEnd
			{
				OFFSET 0.000000 0.000000 0.000000
				CHANNELS 3 Zrotation Yrotation Xrotation
				End Site
				{
					OFFSET 0.000000 0.000000 0.000000
				}
			}
		}
	}
}
MOTION
Frames: 5
Frame Time: 0.016667
0.053599 88.859886 3.107447 0.490481 0.055862 -6.497332 0.023754 -0.000539 5.886370 -1.012250 0.067046 0.861970 0.478071 -2.416792 3.829567 0.155030 -0.780500 1.929224 2.330515 0.848112 5.016849 0.371683 2.117863 -3.221864 -0.714533 -0.852149 -18.222401 0.000000 0.000000 0.000000 92.418694 -0.394880 9.707912 65.456573 -33.431271 5.091406 -0.130291 12.440493 22.353239 6.882370 13.743960 -6.458578 10.637670 -1.840800 39.870983 0.000000 0.000000 -25.919998 0.000000 0.000000 -18.000004 0.000000 0.000000 0.000000 12.845482 -0.000000 -9.527125 8.991838 0.000000 0.000000 8.991838 0.000000 0.000000 0.000000 0.000000 0.000000 11.286146 -0.000000 -11.044980 7.900302 0.000000 0.000000 7.900302 0.000000 0.000000 0.000000 0.000000 0.000000 11.199185 0.000000 -11.348525 7.839428 0.000000 0.000000 7.839428 0.000000 0.000000 0.000000 0.000000 0.000000 10.416969 0.000000 -12.591636 7.291878 0.000000 0.000000 7.291878 0.000000 0.000000 0.000000 0.000000 0.000000 0.000000 0.000000 0.000000 0.000000 0.000000 0.000000 -90.370071 0.051974 5.208683 -71.842018 19.306828 -7.574249 -0.664994 -8.642401 40.885647 -0.139946 -25.486511 -15.477552 -11.236528 1.888869 39.607231 0.000000 0.000000 -27.360001 0.000000 0.000000 -18.999998 0.000000 0.000000 0.000000 -16.692022 0.000000 -11.498048 -11.684413 0.000000 0.000000 -11.684413 0.000000 0.000000 0.000000 0.000000 0.000000 -15.977510 0.000000 -11.317391 -11.184259 0.000000 0.000000 -11.184259 0.000000 0.000000 0.000000 0.000000 0.000000 -18.180992 -0.000000 -10.528083 -12.726697 0.000000 0.000000 -12.726697 0.000000 0.000000 0.000000 0.000000 0.000000 -19.065912 -0.000000 -9.698054 -13.346139 0.000000 0.000000 -13.346139 0.000000 0.000000 0.000000 0.000000 0.000000 0.000000 0.000000 0.000000 0.000000 0.000000 0.000000 -1.045058 -10.518975 11.869204 -0.078405 -0.635030 3.758801 -2.197730 -7.901679 18.681496 -0.890004 0.828132 -18.870453 0.000000 0.000000 0.000000 0.000000 0.000000 0.000000 0.000000 0.000000 0.000000 -1.784023 -6.543907 7.474547 0.053202 0.398207 7.545935 3.843466 -1.785134 17.966772 0.194973 -0.390531 -20.817129 0.000000 0.000000 0.000000 0.000000 0.000000 0.000000 0.000000 0.000000 0.000000 
0.081494 88.237732 3.018973 -0.207346 -0.220968 -7.900790 1.332035 -0.197388 6.811726 -1.147050 0.170790 2.651506 0.649435 -1.682050 2.827928 -0.734871 -0.286099 3.387540 2.340475 0.947598 2.948533 0.932613 2.315693 -3.673483 -0.716348 -1.086902 -17.788221 0.000000 0.000000 0.000000 91.946022 -0.536297 9.632157 66.407867 -31.434752 4.525126 -0.202947 13.740989 23.387642 6.830729 12.280372 -5.261145 10.346416 -1.810108 39.890327 -0.000000 0.000026 -25.357203 0.000011 0.000044 -17.429646 0.000000 -0.000003 -0.000020 12.122708 0.110270 -8.967232 8.536880 -0.018346 -0.223817 8.638649 0.009245 -0.218293 -0.000026 0.000028 -0.000023 10.876227 0.039122 -10.279371 7.763207 -0.015316 -0.071538 7.873252 0.002834 -0.063748 0.000019 0.000020 0.000014 10.737417 -0.097032 -10.422868 7.752308 0.051821 0.022792 7.775429 0.007156 0.019852 -0.000015 -0.000018 0.000010 10.075229 -0.276639 -11.968161 7.413934 0.145959 -0.027901 7.318502 0.052214 0.001581 0.000102 -0.000005 0.000008 0.000000 0.000000 0.000000 0.000000 0.000000 0.000000 -88.796501 0.141478 6.332008 -71.353966 19.356886 -5.501967 -1.244144 -10.436623 40.662193 -0.041079 -23.638931 -15.002273 -10.856680 1.813250 39.632061 0.000004 0.000019 -26.707018 -0.000029 -0.000025 -18.370956 -0.000191 0.000002 0.000021 -16.449856 0.150877 -9.637384 -11.207284 0.009713 0.285838 -11.530060 0.034550 0.250522 0.000011 0.000146 -0.000006 -15.807307 0.073522 -10.347572 -11.005570 -0.004637 0.106728 -10.819615 0.013203 0.095190 -0.000245 -0.000046 -0.000036 -17.596773 -0.051617 -10.696411 -12.226756 0.027139 -0.184803 -12.097998 -0.013266 -0.118496 0.000413 0.000011 0.000006 -18.232832 -0.236464 -11.484594 -12.703231 0.030813 -0.397027 -12.679780 -0.041961 -0.335632 -0.000184 -0.000011 -0.000033 0.000000 0.000000 0.000000 0.000000 0.000000 0.000000 -0.757213 -10.276678 12.063920 -0.022304 -0.629700 4.755654 -2.455533 -8.664755 19.087683 -0.863667 0.857215 -18.771727 0.000000 0.000000 0.000000 0.000000 0.000000 0.000000 0.000000 0.000000 0.000000 -1.376813 -5.733563 8.653238 0.050948 0.424058 6.987912 3.565535 -0.650724 18.531263 0.313233 -0.493434 -20.948078 0.000000 0.000000 0.000000 0.000000 0.000000 0.000000 0.000000 0.000000 0.000000 
0.079008 88.221062 2.992332 -0.190996 -0.265449 -7.978873 1.276973 -0.176195 6.846538 -1.070456 0.161943 2.721708 0.553781 -1.684621 2.865591 -0.710177 -0.307666 3.409702 2.465863 0.845327 3.097667 0.903835 2.252752 -3.551811 -0.735185 -1.076237 -17.852537 0.000000 0.000000 0.000000 91.972031 -0.529653 9.654945 66.347511 -31.384581 4.729401 -0.227035 13.745382 23.105633 6.854024 12.142973 -5.433394 10.312606 -1.806005 39.909874 -0.000002 0.000045 -25.249916 0.000015 0.000038 -17.366823 0.000012 0.000004 -0.000033 12.068492 0.114336 -8.896647 8.479574 -0.023051 -0.204252 8.574001 0.005481 -0.199188 -0.000005 0.000042 -0.000017 10.828204 0.039658 -10.233515 7.710354 -0.017454 -0.062241 7.809480 0.000738 -0.055642 0.000015 0.000011 0.000002 10.747047 -0.096776 -10.423430 7.700695 0.054628 0.009163 7.712379 0.010163 0.009848 -0.000021 -0.000027 -0.000003 10.126765 -0.278653 -12.021941 7.394711 0.154314 -0.055838 7.295717 0.057625 -0.021544 0.000120 0.000006 0.000004 0.000000 0.000000 0.000000 0.000000 0.000000 0.000000 -88.812866 0.127141 6.323284 -71.253822 19.505224 -5.366887 -1.195498 -10.161529 40.512310 0.122306 -23.568243 -15.449108 -10.828149 1.806558 39.647724 0.000016 0.000023 -26.625069 -0.000037 -0.000013 -18.312117 -0.000300 0.000013 -0.000013 -16.317610 0.156912 -9.722013 -11.153673 0.003973 0.255399 -11.465415 0.029217 0.219806 0.000025 0.000089 0.000003 -15.650430 0.075568 -10.460927 -10.940212 -0.006623 0.092410 -10.758863 0.011055 0.083797 -0.000252 -0.000040 -0.000056 -17.413221 -0.049110 -10.866885 -12.148813 0.030615 -0.165423 -12.025939 -0.010548 -0.105575 0.000476 0.000017 0.000011 -18.065228 -0.225913 -11.718423 -12.649940 0.040743 -0.336814 -12.632814 -0.033529 -0.291654 -0.000158 0.000008 -0.000051 0.000000 0.000000 0.000000 0.000000 0.000000 0.000000 -0.769388 -10.319578 12.074878 -0.021767 -0.627836 4.766878 -2.446325 -8.531573 19.065248 -0.850148 0.860425 -18.786211 0.000000 0.000000 0.000000 0.000000 0.000000 0.000000 0.000000 0.000000 0.000000 -1.330561 -5.620420 8.691599 0.049178 0.416587 6.948905 3.542244 -0.717892 18.567369 0.318320 -0.494900 -20.954725 0.000000 0.000000 0.000000 0.000000 0.000000 0.000000 0.000000 0.000000 0.000000 
0.078471 88.210388 2.972127 -0.178023 -0.320144 -8.050422 1.235515 -0.154039 6.881889 -1.011517 0.153812 2.780583 0.497131 -1.676551 2.905926 -0.676272 -0.321167 3.400872 2.509658 0.769020 3.191015 0.886083 2.189850 -3.476468 -0.736261 -1.069183 -17.906471 0.000000 0.000000 0.000000 92.007301 -0.517320 9.693885 66.304230 -31.234531 4.852458 -0.252778 13.799799 22.875153 6.869102 12.068087 -5.541861 10.304802 -1.805858 39.914062 0.000000 0.000045 -25.208067 0.000013 0.000040 -17.348415 0.000012 0.000004 -0.000033 12.026937 0.115574 -8.896728 8.424238 -0.025410 -0.192004 8.505769 0.003674 -0.187075 -0.000005 0.000042 -0.000018 10.793052 0.039403 -10.244283 7.653623 -0.018502 -0.056483 7.747790 -0.000427 -0.050530 0.000015 0.000016 0.000004 10.760818 -0.095802 -10.447978 7.653229 0.055697 0.002141 7.661242 0.011779 0.004729 -0.000019 -0.000002 -0.000002 10.155822 -0.277120 -12.058079 7.377840 0.157011 -0.065406 7.276428 0.058581 -0.029130 0.000128 0.000005 -0.000003 0.000000 0.000000 0.000000 0.000000 0.000000 0.000000 -88.817291 0.128262 6.322518 -71.242188 19.603855 -5.329724 -1.164223 -10.026651 40.380646 0.086728 -23.328291 -15.681090 -10.820439 1.805400 39.649620 0.000015 0.000023 -26.600754 -0.000041 -0.000014 -18.293009 -0.000405 0.000011 0.000010 -16.205473 0.158125 -9.741931 -11.076813 -0.000633 0.232537 -11.380773 0.025246 0.195594 0.000023 0.000042 0.000003 -15.505808 0.075857 -10.514849 -10.857398 -0.008383 0.081664 -10.679043 0.009315 0.074811 -0.000259 -0.000041 -0.000071 -17.231358 -0.046272 -10.970136 -12.054804 0.033085 -0.151034 -11.936316 -0.008644 -0.095556 0.000455 0.000017 0.000011 -17.892084 -0.217792 -11.880821 -12.576009 0.047519 -0.294065 -12.561701 -0.028022 -0.257705 -0.000147 0.000008 -0.000052 0.000000 0.000000 0.000000 0.000000 0.000000 0.000000 -0.791735 -10.306991 12.082237 -0.021361 -0.625343 4.786668 -2.446201 -8.419187 19.063051 -0.841713 0.860628 -18.800545 0.000000 0.000000 0.000000 0.000000 0.000000 0.000000 0.000000 0.000000 0.000000 -1.310581 -5.511940 8.739364 0.046804 0.408239 6.914958 3.540657 -0.702041 18.591921 0.321117 -0.494475 -20.952116 0.000000 0.000000 0.000000 0.000000 0.000000 0.000000 0.000000 0.000000 0.000000 
0.082290 88.201057 2.959533 -0.155421 -0.382108 -8.118700 1.202015 -0.134553 6.916246 -0.975628 0.148778 2.815502 0.459950 -1.664149 2.947185 -0.652192 -0.327797 3.384412 2.518527 0.718892 3.261513 0.871939 2.142455 -3.419629 -0.729497 -1.061560 -17.963257 0.000000 0.000000 0.000000 92.044044 -0.502994 9.729813 66.306183 -31.089712 4.859535 -0.276458 13.849380 22.778399 6.871630 11.986480 -5.631469 10.317890 -1.808341 39.907135 0.000000 0.000045 -25.224684 0.000013 0.000041 -17.368986 0.000012 0.000004 -0.000033 12.048846 0.116393 -8.913834 8.386106 -0.026040 -0.186255 8.454695 0.003355 -0.181297 -0.000005 0.000041 -0.000019 10.816250 0.038752 -10.271075 7.612911 -0.018860 -0.053857 7.704781 -0.000857 -0.047960 0.000015 0.000020 0.000006 10.814525 -0.094664 -10.490818 7.621436 0.055478 -0.000117 7.628408 0.012302 0.003185 -0.000018 0.000031 -0.000001 10.210856 -0.274439 -12.103311 7.370416 0.156311 -0.062674 7.268618 0.056900 -0.026021 0.000135 0.000005 -0.000008 0.000000 0.000000 0.000000 0.000000 0.000000 0.000000 -88.813065 0.129063 6.311258 -71.282959 19.674736 -5.339311 -1.136174 -9.941930 40.297497 0.039713 -23.058067 -15.823681 -10.829679 1.807405 39.642696 0.000015 0.000024 -26.619284 -0.000043 -0.000014 -18.306335 -0.000496 0.000010 0.000024 -16.162338 0.158090 -9.728699 -11.020402 -0.003641 0.220137 -11.317624 0.022617 0.180626 0.000021 0.000006 0.000003 -15.437528 0.075497 -10.530624 -10.793926 -0.009606 0.075118 -10.616696 0.008097 0.069376 -0.000276 -0.000041 -0.000081 -17.125639 -0.043671 -11.029791 -11.972473 0.034819 -0.141694 -11.856682 -0.007346 -0.089042 0.000433 0.000017 0.000011 -17.788736 -0.211752 -11.993463 -12.501101 0.051840 -0.266412 -12.490244 -0.024607 -0.235320 -0.000140 0.000008 -0.000053 0.000000 0.000000 0.000000 0.000000 0.000000 0.000000 -0.823131 -10.278804 12.099238 -0.020826 -0.621835 4.805086 -2.455522 -8.330440 19.055952 -0.837152 0.857812 -18.800983 0.000000 0.000000 0.000000 0.000000 0.000000 0.000000 0.000000 0.000000 0.000000 -1.313744 -5.398956 8.801556 0.044340 0.399532 6.892627 3.546406 -0.647420 18.606020 0.320572 -0.493992 -20.939659 0.000000 0.000000 0.000000 0.000000 0.000000 0.000000 0.000000 0.000000 0.000000 
